<?xml version="1.0" encoding="UTF-8"?>
<svg xmlns="http://www.w3.org/2000/svg" id="Layer_1" data-name="Layer 1" viewBox="0 0 24 24" width="512" height="512"><path d="M23.634,6.3l-1.466-2.435c-.304-.509-.719-1.205-1.33-1.398L13.957,.29c-1.283-.406-2.639-.406-3.922,0L3.154,2.468c-.58,.184-1.073,.572-1.404,1.124L.381,6.262c-.413,.685-.491,1.508-.214,2.258,.276,.75,.87,1.326,1.629,1.578l.21,.07-.006,7.604c-.001,1.941,1.235,3.659,3.077,4.272l4.862,1.621c.663,.221,1.359,.332,2.056,.332s1.393-.11,2.056-.332l4.866-1.622c1.842-.614,3.082-2.328,3.083-4.266v-7.614l.238-.079c.749-.25,1.334-.817,1.607-1.557,.273-.74,.196-1.552-.211-2.228ZM1.105,8.174c-.171-.464-.123-.973,.149-1.426l1.369-2.671c.066-.11,.146-.21,.237-.298l8.408,2.812-1.974,3.639c-.387,.645-1.156,.929-1.868,.691l-5.313-1.771c-.469-.157-.836-.512-1.007-.976Zm10.383,14.8c-.418-.038-.833-.124-1.233-.257l-4.862-1.621c-1.433-.478-2.395-1.813-2.394-3.323l.005-7.272,4.103,1.368c1.164,.388,2.413-.075,3.053-1.144l1.333-2.457-.007,14.705ZM4.219,3.179l6.118-1.936c1.085-.343,2.233-.343,3.319,0l6.135,1.942-7.786,2.598L4.219,3.179Zm16.781,14.598c-.001,1.507-.965,2.84-2.399,3.318l-4.866,1.622c-.404,.135-.823,.221-1.246,.258l.007-14.712,1.346,2.481c.48,.801,1.323,1.26,2.212,1.26,.275,0,.555-.044,.83-.136l4.117-1.372v7.28Zm1.907-9.596c-.167,.454-.526,.802-.985,.955l-5.355,1.785c-.714,.235-1.481-.046-1.857-.672l-1.982-3.654,8.241-2.75c.135,.188,.259,.396,.341,.533l1.468,2.438c.25,.415,.297,.912,.129,1.366Z" fill="currentcolor" /></svg>
